<?xml version="1.0" standalone="no"?>
<!DOCTYPE svg PUBLIC "-//W3C//DTD SVG 20010904//EN"
 "http://www.w3.org/TR/2001/REC-SVG-20010904/DTD/svg10.dtd">
<svg version="1.0" xmlns="http://www.w3.org/2000/svg"
 width="256.000000pt" height="256.000000pt" viewBox="0 0 256.000000 256.000000"
 preserveAspectRatio="xMidYMid meet">

<g transform="translate(0.000000,256.000000) scale(0.100000,-0.100000)"
fill="#000000" stroke="none">
<path d="M446 2549 c-99 -11 -179 -54 -257 -137 -37 -38 -78 -95 -97 -133 -32
-66 -42 -98 -21 -69 8 12 9 8 4 -13 l-6 -28 63 7 c35 4 67 12 71 18 6 8 10 7
14 -1 6 -16 103 -18 103 -3 0 20 41 10 50 -12 5 -13 9 -17 9 -10 1 7 16 12 41
12 22 0 40 5 40 10 0 6 14 10 30 10 17 0 30 -5 30 -11 0 -8 17 -10 50 -7 27 3
47 2 45 -2 -2 -3 10 -4 28 -2 27 4 29 6 12 13 -17 6 -17 8 -2 8 9 1 17 7 17
14 0 8 4 7 11 -3 7 -11 8 -5 3 23 -7 43 2 46 42 15 15 -13 24 -16 19 -8 -5 9
0 7 13 -4 23 -20 29 -32 11 -20 -8 5 -8 1 0 -14 13 -25 33 -39 25 -18 -6 15
13 15 89 1 25 -5 37 -4 37 4 0 6 9 11 20 11 11 0 20 -5 20 -10 0 -13 32 -9 41
4 4 5 23 10 43 11 28 3 36 0 36 -14 0 -13 8 -16 40 -13 22 2 40 8 40 13 0 20
20 7 21 -13 1 -13 7 0 14 27 l12 50 5 -35 c4 -27 5 -23 6 20 3 79 30 237 46
268 l14 27 12 -30 c18 -48 30 -113 44 -250 7 -71 14 -113 15 -92 1 36 2 37 23
26 16 -9 23 -9 26 0 2 6 8 11 13 11 4 0 6 -7 3 -15 -5 -11 -2 -13 10 -9 9 4
16 1 16 -6 0 -7 7 -9 15 -6 8 3 22 9 30 12 11 5 14 1 9 -12 -5 -16 -4 -16 5
-4 8 11 7 18 -4 26 -13 10 -12 12 7 17 12 4 27 2 32 -2 33 -26 146 -35 146
-12 0 9 6 11 18 6 47 -19 70 -13 113 31 24 24 46 44 50 44 4 0 9 -12 11 -27 2
-20 9 -29 26 -31 27 -4 29 -22 2 -22 -11 0 -20 -5 -20 -11 0 -5 4 -7 10 -4 5
3 92 6 192 6 101 1 177 3 171 6 -7 2 -13 9 -13 14 0 11 50 1 64 -12 16 -14 30
-10 17 5 -9 11 -6 12 14 8 14 -2 25 -9 25 -14 0 -5 5 -6 12 -2 7 4 33 9 57 10
27 1 47 7 50 15 2 7 12 -7 22 -32 10 -24 18 -37 18 -29 1 24 -53 143 -86 191
-87 126 -194 193 -333 209 -101 12 -1553 11 -1654 -1z m1325 -352 c-10 -9 -11
-8 -5 6 3 10 9 15 12 12 3 -3 0 -11 -7 -18z"/>
<path d="M1861 2194 c0 -11 3 -14 6 -6 3 7 2 16 -1 19 -3 4 -6 -2 -5 -13z"/>
<path d="M1533 2145 c0 -22 2 -30 4 -17 2 12 2 30 0 40 -3 9 -5 -1 -4 -23z"/>
<path d="M1851 2154 c0 -11 3 -14 6 -6 3 7 2 16 -1 19 -3 4 -6 -2 -5 -13z"/>
<path d="M31 2114 c0 -11 3 -14 6 -6 3 7 2 16 -1 19 -3 4 -6 -2 -5 -13z"/>
<path d="M21 2074 c0 -11 3 -14 6 -6 3 7 2 16 -1 19 -3 4 -6 -2 -5 -13z"/>
</g>
</svg>
